<svg width="1200" height="630" viewBox="0 0 1200 630" fill="none" xmlns="http://www.w3.org/2000/svg">
  <rect width="1200" height="630" fill="#0B1120"/>
  <rect width="1200" height="630" fill="url(#bg)"/>
  <circle cx="1080" cy="112" r="220" fill="#F0812A" fill-opacity="0.14"/>
  <circle cx="84" cy="548" r="230" fill="#1D4ED8" fill-opacity="0.14"/>
  <path d="M98 454C230 388 340 412 458 332C598 238 696 192 820 224C920 250 992 228 1094 156" stroke="#F0812A" stroke-width="18" stroke-linecap="round" stroke-opacity="0.18"/>
  <path d="M98 462C228 396 338 420 460 340C602 246 700 202 818 232C922 258 996 236 1098 164" stroke="#F0812A" stroke-width="5" stroke-linecap="round"/>
  <rect x="98" y="94" width="244" height="74" rx="37" fill="#FFF7ED"/>
  <text x="145" y="141" fill="#F0812A" font-family="Arial, Helvetica, sans-serif" font-size="38" font-weight="800" letter-spacing="-1">TradeTally</text>
  <text x="98" y="300" fill="#FFFFFF" font-family="Arial, Helvetica, sans-serif" font-size="96" font-weight="800" letter-spacing="-2">TradeTally</text>
  <text x="98" y="356" fill="#F9FAFB" fill-opacity="0.92" font-family="Arial, Helvetica, sans-serif" font-size="40" font-weight="700">Free Trading Journal and Investment Tracker</text>
  <text x="98" y="430" fill="#D1D5DB" font-family="Arial, Helvetica, sans-serif" font-size="28">Track trades, broker imports, analytics, holdings P&amp;L, and AI insights.</text>
  <text x="98" y="500" fill="#F0812A" font-family="Arial, Helvetica, sans-serif" font-size="28" font-weight="700">tradetally.io</text>
  <defs>
    <linearGradient id="bg" x1="0" y1="0" x2="1200" y2="630" gradientUnits="userSpaceOnUse">
      <stop stop-color="#0F172A"/>
      <stop offset="0.48" stop-color="#111827"/>
      <stop offset="1" stop-color="#1E293B"/>
    </linearGradient>
  </defs>
</svg>
